<?xml version="1.0" encoding="utf-8"?>
<!-- Generator: Adobe Illustrator 24.0.1, SVG Export Plug-In . SVG Version: 6.00 Build 0)  -->
<svg version="1.1" id="Capa_1" focusable="false" xmlns="http://www.w3.org/2000/svg" xmlns:xlink="http://www.w3.org/1999/xlink"
	 x="0px" y="0px" viewBox="0 0 512 512" style="enable-background:new 0 0 512 512;" xml:space="preserve">
<style type="text/css">
	.st0{fill:#14A4BC;}
</style>
<path class="st0" d="M256,8C119,8,8,119,8,256s111,248,248,248s248-111,248-248S393,8,256,8z M256,456c-110.5,0-200-89.5-200-200
	S145.5,56,256,56s200,89.5,200,200S366.5,456,256,456z"/>
<g>
	<path class="st0" d="M222.6,336.5h9.6v-69.1h-9.6c-5.3,0-9.6-4.3-9.6-9.6v-22.9c0-5.3,4.3-9.6,9.6-9.6h53.6c5.3,0,9.6,4.3,9.6,9.6
		v101.5h9.6c5.3,0,9.6,4.3,9.6,9.6v22.9c0,5.3-4.3,9.6-9.6,9.6h-72.7c-5.3,0-9.6-4.3-9.6-9.6V346
		C213.1,340.8,217.4,336.5,222.6,336.5z M259,133.6c-19.1,0-34.4,15.4-34.4,34.4s15.4,34.4,34.4,34.4s34.4-15.4,34.4-34.4
		S278.1,133.6,259,133.6z"/>
</g>
</svg>
